<svg fill="none" xmlns="http://www.w3.org/2000/svg" viewBox="0 0 16 16"><defs/><path fill-rule="evenodd" clip-rule="evenodd" d="M14 2H2a2 2 0 00-2 2v8c0 1.1.9 2 2 2h12a2 2 0 002-2V4a2 2 0 00-2-2zM1 4c0-.6.4-1 1-1h12c.6 0 1 .4 1 1v8c0 .6-.4 1-1 1H2a1 1 0 01-1-1V4z" fill="currentColor"/><path fill-rule="evenodd" clip-rule="evenodd" d="M5 8.4h1.8v2c-.2.3-.5.4-.8.5a3.2 3.2 0 01-2 0l-.8-.6c-.3-.2-.4-.5-.6-.8l-.2-1 .2-1A2.3 2.3 0 014 6.2 3 3 0 015.6 6a2.8 2.8 0 011 .3l.3.3-.4.5-.2.1h-.2a3.5 3.5 0 00-.5-.3h-.3H4.4l-.4.4-.3.5-.1.6.1.7c0 .2.2.4.3.5l.5.3a1.6 1.6 0 001 0h.3v-.8h-.5-.2v-.8zM9 11H8V6.1h1v4.8zm2.5-2.7V6.9h2v-.8h-3.1v4.8h1.1V9h1.7v-.8h-1.7z" fill="currentColor"/></svg>
