<svg fill="none" xmlns="http://www.w3.org/2000/svg" viewBox="0 0 16 16"><defs/><path fill-rule="evenodd" clip-rule="evenodd" d="M14 2H2a2 2 0 00-2 2v8c0 1.1.9 2 2 2h12a2 2 0 002-2V4a2 2 0 00-2-2zM1 4c0-.6.4-1 1-1h12c.6 0 1 .4 1 1v8c0 .6-.4 1-1 1H2a1 1 0 01-1-1V4z" fill="currentColor"/><path d="M2 10.5v-5h2.1l.7.1a1.7 1.7 0 01.8 1l.1.6a1.7 1.7 0 01-.9 1.5l-.6.2h-1v1.6H2zm1.1-2.6h1l.3-.2.2-.5v-.3l-.2-.2-.2-.2H3.1V8zM6 10.5v-5h2c.3 0 .7 0 1 .2A2.2 2.2 0 0110.2 7l.2 1c0 .4 0 .7-.2 1A2.2 2.2 0 019 10.3l-1 .2H6.1zM9.3 8v-.6l-.3-.5-.4-.3H7.2v2.9h.7c.2 0 .4 0 .6-.2l.4-.3.2-.4.1-.6zM10.6 10.5v-5H14v1h-2.2v1h1.8v1h-1.8v2h-1.2z" fill="currentColor"/></svg>
